<?xml version="1.0" encoding="UTF-8"?>
<svg width="45px" height="45px" viewBox="0 0 45 45" version="1.1" xmlns="http://www.w3.org/2000/svg" xmlns:xlink="http://www.w3.org/1999/xlink">
    <!-- Generator: Sketch 46.2 (44496) - http://www.bohemiancoding.com/sketch -->
    <title>fb</title>
    <desc>Created with Sketch.</desc>
    <defs></defs>
    <g id="Page-1" stroke="none" stroke-width="1" fill="none" fill-rule="evenodd">
        <g id="Artboard" transform="translate(-95.000000, -78.000000)">
            <g id="fb" transform="translate(95.000000, 78.000000)">
                <circle id="Oval" fill="#FFFFFF" cx="22.5" cy="22.5" r="22.5"></circle>
                <path d="M28.84375,10.5892857 L28.84375,14.125 L26.7410714,14.125 C25.9732104,14.125 25.4553585,14.2857127 25.1875,14.6071429 C24.9196415,14.928573 24.7857143,15.4107111 24.7857143,16.0535714 L24.7857143,18.5848214 L28.7098214,18.5848214 L28.1875,22.5491071 L24.7857143,22.5491071 L24.7857143,32.7142857 L20.6875,32.7142857 L20.6875,22.5491071 L17.2723214,22.5491071 L17.2723214,18.5848214 L20.6875,18.5848214 L20.6875,15.6651786 C20.6875,14.004456 21.1517811,12.7165224 22.0803571,11.8013393 C23.0089332,10.8861561 24.245528,10.4285714 25.7901786,10.4285714 C27.1026851,10.4285714 28.1205321,10.4821423 28.84375,10.5892857 Z" id="" fill="#9B9B9B"></path>
            </g>
        </g>
    </g>
</svg>