<?xml version="1.0" encoding="UTF-8"?>
<svg width="784px" height="348px" viewBox="0 0 784 348" version="1.1" xmlns="http://www.w3.org/2000/svg" xmlns:xlink="http://www.w3.org/1999/xlink">
    <!-- Generator: Sketch 40 (33762) - http://www.bohemiancoding.com/sketch -->
    <title>sero</title>
    <desc>Created with Sketch.</desc>
    <defs></defs>
    <g id="Page-1" stroke="none" stroke-width="1" fill="none" fill-rule="evenodd">
        <g id="sero">
            <g id="Group">
                <g transform="translate(57.000000, 53.000000)" id="Shape">
                    <path d="M70.3,164.9 C84.6,127 57.5,26.1 17,3.2 C47.5,66.9 61.4,114.8 70.3,164.9 L70.3,164.9 Z" fill="#86C440"></path>
                    <path d="M10,0 C43.9,68.7 58.1,118.5 67,171.5 C43.2,180.4 -23.5,93.6 10,0 L10,0 Z" fill="#F2C825"></path>
                </g>
                <path d="M25.4,81 C11.3,171.2 61.8,240.1 120,261.9 C33.2,245.2 -6.2,156.2 10.9,61.8 L25.4,81 L25.4,81 Z" id="Shape" fill="#86C440"></path>
                <path d="M15.6,186.7 C32,221.9 64.9,264.7 131.3,267.9 C45.5,276.6 11.3,215.5 0.7,180.5 L15.6,186.7 L15.6,186.7 Z" id="Shape" fill="#86C440"></path>
                <path d="M48.4,0.3 C4.3,137.5 49.1,232.5 138.9,263.2 C156.2,220.5 163.1,203.6 157.5,155.9 C156.7,186.8 152.6,226.8 136.5,256.8 C47.2,222.6 21.5,128.3 57.9,27.2 C120.7,76.8 161.3,146.4 131,228 C161.8,160 150.2,95.3 48.4,0.3 L48.4,0.3 Z" id="Shape" fill="#86C440"></path>
            </g>
            <g id="Group" transform="translate(199.000000, 152.000000)" fill="#000000">
                <path d="M10.4,159 C22.5,164.4 33.5,167.9 43.5,169.4 C53.5,170.9 61.8,171.7 68.5,171.7 C74.4,171.7 80,171.2 85.2,170.2 C90.5,169.2 95,167.5 98.9,165.2 C102.7,162.9 105.8,159.8 107.9,155.9 C110.1,152 111.2,147.3 111.2,141.6 C111.2,136.7 110.1,132.5 107.9,129.1 C105.7,125.6 102.8,122.7 99,120.2 C95.3,117.8 91,115.6 86.1,113.8 C81.2,112 76.1,110.2 70.7,108.4 C62.5,105.6 54.6,102.7 47,99.9 C39.4,97.1 32.7,93.7 26.8,89.7 C20.9,85.7 16.2,80.9 12.6,75.2 C9,69.5 7.2,62.3 7.2,53.6 C7.2,44.6 9,36.8 12.6,30.1 C16.2,23.4 21.1,17.9 27.2,13.5 C33.4,9.1 40.5,5.9 48.8,3.9 C57,1.8 65.9,0.8 75.4,0.8 C79.2,0.8 83.6,1.1 88.5,1.6 C93.4,2.1 98.3,2.9 103.3,3.9 C108.3,4.9 113.2,6.2 118.1,7.9 C123,9.5 127.5,11.6 131.6,14.2 L122,36 C112.2,32.2 103.7,29.5 96.2,28.1 C88.8,26.7 81.7,26 75,26 C70.1,26 65.4,26.5 60.8,27.4 C56.2,28.3 52.1,29.8 48.7,32 C45.2,34.2 42.4,37.1 40.2,40.7 C38,44.3 36.9,48.7 36.9,53.8 C36.9,57.9 38.2,61.4 40.9,64.4 C43.6,67.4 47,70 51.1,72.3 C55.2,74.6 59.6,76.5 64.2,78.1 C68.8,79.6 73.1,81.1 76.9,82.3 C84.8,84.9 92.7,87.5 100.4,90.2 C108.1,92.9 115,96.4 121.2,100.6 C127.4,104.8 132.3,110.1 136,116.4 C139.7,122.7 141.6,130.9 141.6,140.9 C141.6,150.4 139.7,158.6 136,165.4 C132.3,172.2 127.1,177.8 120.6,182.2 C114.1,186.6 106.2,189.8 97.1,191.8 C88,193.9 78.1,194.9 67.3,194.9 C61.7,194.9 55.8,194.6 49.8,194 C43.8,193.4 37.8,192.5 31.9,191.3 C26,190.2 20.3,188.7 14.8,186.8 C9.3,184.9 4.5,182.8 0.4,180.6 L10.4,159 L10.4,159 Z" id="Shape"></path>
                <path d="M229,0.4 C241.6,0.4 252.2,2.1 260.8,5.4 C269.4,8.7 276.5,13.1 282.2,18.5 C287.8,23.9 292.2,29.9 295.3,36.6 C298.4,43.3 300.6,49.9 302,56.6 C303.4,63.3 304.2,69.6 304.5,75.5 C304.8,81.4 304.9,86.3 304.9,90.1 L304.9,105.1 L178.9,105.1 C178.9,113.8 179.7,122.2 181.2,130.1 C182.7,138.1 185.6,145 189.7,151.1 C193.8,157.1 199.3,161.9 206.2,165.5 C213.1,169.1 221.8,170.9 232.4,170.9 C243.4,170.9 253.5,169.7 262.6,167.4 C271.7,165.1 281.6,161.8 292.4,157.4 L300.1,177.4 C288.8,183.3 277.5,187.7 266,190.5 C254.6,193.3 242.6,194.7 230,194.7 C213.3,194.7 199.6,192.1 188.8,187 C178,181.9 169.5,175 163.2,166.4 C156.9,157.8 152.6,147.7 150.1,136 C147.7,124.3 146.4,111.9 146.4,98.9 C146.4,93.3 146.8,86.9 147.6,79.8 C148.4,72.7 149.8,65.6 152,58.4 C154.2,51.2 157.2,44.1 161,37 C164.8,29.9 169.9,23.7 176,18.3 C182.2,12.9 189.5,8.6 198.1,5.2 C207,2.1 217.2,0.4 229,0.4 L229,0.4 Z M229.7,23.5 C220.7,23.5 213.2,25.2 207,28.5 C200.8,31.8 195.8,36.3 191.8,42 C187.8,47.6 184.9,54.2 182.9,61.6 C181,69 179.8,76.7 179.2,84.7 L275,84.7 C275,75.7 274.2,67.4 272.7,59.9 C271.2,52.3 268.7,45.9 265.2,40.5 C261.7,35.1 257.1,30.9 251.3,28 C245.7,25 238.5,23.5 229.7,23.5 L229.7,23.5 Z" id="Shape"></path>
                <path d="M351.7,31.2 C356.3,27.1 361.4,23.2 367.1,19.5 C372.7,15.8 378.5,12.5 384.4,9.7 C390.3,6.9 396.1,4.6 401.7,2.8 C407.3,1 412.6,0.1 417.5,0.1 C420.3,0.1 422.6,0.7 424.4,2 C426.2,3.3 427.1,5.8 427.1,9.7 C427.1,11.2 426.8,13.3 426.1,15.9 C425.5,18.5 424.7,21.1 423.8,23.8 C422.9,26.5 421.8,29.1 420.5,31.7 C419.2,34.3 417.8,36.5 416.3,38.2 C405.5,39.5 394.7,40.8 383.8,42.2 C372.9,43.6 362.1,45 351.3,46.2 L351.3,192.4 L320.1,192.4 L320.1,4.6 L350.5,4.6 L349.3,29.6 L351.7,31.2 L351.7,31.2 Z" id="Shape"></path>
                <path d="M584.6,98.9 C584.6,111 583.3,122.8 580.6,134.3 C577.9,145.8 573.3,156.2 566.7,165.3 C560.2,174.4 551.4,181.7 540.3,187.2 C529.3,192.7 515.5,195.5 499.1,195.5 C483.7,195.5 470.8,192.9 460.4,187.6 C450,182.3 441.7,175.4 435.6,166.6 C429.4,157.9 425,147.7 422.3,136.2 C419.6,124.7 418.3,112.5 418.3,99.6 C418.3,87 419.8,74.8 422.9,63 C426,51.2 430.9,40.7 437.5,31.4 C444.2,22.2 452.9,14.7 463.7,9.1 C474.5,3.5 487.6,0.6 503,0.6 C518.6,0.6 531.7,3.4 542.3,9.1 C552.8,14.7 561.2,22.1 567.5,31.2 C573.8,40.3 578.2,50.8 580.8,62.6 C583.3,74.5 584.6,86.6 584.6,98.9 L584.6,98.9 Z M551.9,99.7 C551.9,91.2 551.3,82.6 550.2,73.9 C549,65.2 546.7,57.2 543.1,49.8 C539.5,42.5 534.5,36.5 528.1,31.9 C521.7,27.3 513.3,25 503.1,25 C492.6,25 484,27.2 477.3,31.7 C470.6,36.2 465.4,42 461.5,49 C457.7,56.1 455,64.1 453.4,73.1 C451.9,82.1 451.1,90.9 451.1,99.7 C451.1,108.9 451.7,117.9 453,126.6 C454.3,135.3 456.8,143 460.5,149.5 C464.2,156 469.5,161.3 476.3,165.3 C483.1,169.3 492,171.3 503,171.3 C513.3,171.3 521.5,169.2 527.8,164.9 C534.1,160.7 539,155.1 542.6,148.2 C546.2,141.3 548.6,133.6 549.9,125.1 C551.2,116.6 551.9,108.2 551.9,99.7 L551.9,99.7 Z" id="Shape"></path>
            </g>
        </g>
    </g>
</svg>